<?xml version="1.0" standalone="no"?>
<!DOCTYPE svg PUBLIC "-//W3C//DTD SVG 1.1//EN" "http://www.w3.org/Graphics/SVG/1.1/DTD/svg11.dtd">
<svg width="100%" height="100%" viewBox="0 0 487 487" version="1.1" xmlns="http://www.w3.org/2000/svg" xmlns:xlink="http://www.w3.org/1999/xlink" xml:space="preserve" style="fill-rule:evenodd;clip-rule:evenodd;stroke-linejoin:round;stroke-miterlimit:1.41421;">
    <g>
        <path d="M243.196,0C108.891,0 0,108.891 0,243.196C0,377.501 108.891,486.392 243.196,486.392C377.501,486.392 486.392,377.501 486.392,243.196C486.392,108.861 377.501,0 243.196,0ZM306.062,243.165L266.208,243.195L266.178,389.112L211.489,389.112L211.489,243.196L175.01,243.196L175.01,192.915L211.489,192.885L211.428,163.276C211.428,122.237 222.554,97.279 270.859,97.279L311.108,97.279L311.108,147.59L285.937,147.59C267.12,147.59 266.208,154.612 266.208,167.714L266.147,192.885L311.381,192.885L306.062,243.165Z" style="fill:white;fill-opacity:0.756863;fill-rule:nonzero;"/>
    </g>
</svg>
